<svg width="200" height="200" xmlns="http://www.w3.org/2000/svg" viewBox="0 0 200 200" role="img" aria-label="Padrão de confete">
  <title>Padrão de confete</title>
  <rect x="0" y="0" width="200" height="200" fill="#FFE6EE"/>
  <g transform="translate(-200 -200)">  <circle cx="20" cy="30" r="5" fill="#E7548C"/>  <circle cx="60" cy="70" r="3.5" fill="#F28BAE"/>  <circle cx="100" cy="20" r="4" fill="#F7B6C7"/>  <circle cx="140" cy="60" r="5" fill="#E7548C"/>  <circle cx="180" cy="30" r="3.5" fill="#F28BAE"/>  <circle cx="30" cy="110" r="4" fill="#F7B6C7"/>  <circle cx="80" cy="150" r="5" fill="#E7548C"/>  <circle cx="120" cy="120" r="3.5" fill="#F28BAE"/>  <circle cx="170" cy="160" r="4.5" fill="#F7B6C7"/>  <circle cx="40" cy="180" r="3.5" fill="#E7548C"/>  <circle cx="150" cy="190" r="4" fill="#F28BAE"/>  <circle cx="110" cy="90" r="4.5" fill="#F7B6C7"/>  <circle cx="190" cy="110" r="3.5" fill="#E7548C"/>  <circle cx="10" cy="70" r="3.5" fill="#F28BAE"/></g>
  <g transform="translate(-200 0)">  <circle cx="20" cy="30" r="5" fill="#E7548C"/>  <circle cx="60" cy="70" r="3.5" fill="#F28BAE"/>  <circle cx="100" cy="20" r="4" fill="#F7B6C7"/>  <circle cx="140" cy="60" r="5" fill="#E7548C"/>  <circle cx="180" cy="30" r="3.5" fill="#F28BAE"/>  <circle cx="30" cy="110" r="4" fill="#F7B6C7"/>  <circle cx="80" cy="150" r="5" fill="#E7548C"/>  <circle cx="120" cy="120" r="3.5" fill="#F28BAE"/>  <circle cx="170" cy="160" r="4.5" fill="#F7B6C7"/>  <circle cx="40" cy="180" r="3.5" fill="#E7548C"/>  <circle cx="150" cy="190" r="4" fill="#F28BAE"/>  <circle cx="110" cy="90" r="4.5" fill="#F7B6C7"/>  <circle cx="190" cy="110" r="3.5" fill="#E7548C"/>  <circle cx="10" cy="70" r="3.5" fill="#F28BAE"/></g>
  <g transform="translate(-200 200)">  <circle cx="20" cy="30" r="5" fill="#E7548C"/>  <circle cx="60" cy="70" r="3.5" fill="#F28BAE"/>  <circle cx="100" cy="20" r="4" fill="#F7B6C7"/>  <circle cx="140" cy="60" r="5" fill="#E7548C"/>  <circle cx="180" cy="30" r="3.5" fill="#F28BAE"/>  <circle cx="30" cy="110" r="4" fill="#F7B6C7"/>  <circle cx="80" cy="150" r="5" fill="#E7548C"/>  <circle cx="120" cy="120" r="3.5" fill="#F28BAE"/>  <circle cx="170" cy="160" r="4.5" fill="#F7B6C7"/>  <circle cx="40" cy="180" r="3.5" fill="#E7548C"/>  <circle cx="150" cy="190" r="4" fill="#F28BAE"/>  <circle cx="110" cy="90" r="4.5" fill="#F7B6C7"/>  <circle cx="190" cy="110" r="3.5" fill="#E7548C"/>  <circle cx="10" cy="70" r="3.5" fill="#F28BAE"/></g>
  <g transform="translate(0 -200)">  <circle cx="20" cy="30" r="5" fill="#E7548C"/>  <circle cx="60" cy="70" r="3.5" fill="#F28BAE"/>  <circle cx="100" cy="20" r="4" fill="#F7B6C7"/>  <circle cx="140" cy="60" r="5" fill="#E7548C"/>  <circle cx="180" cy="30" r="3.5" fill="#F28BAE"/>  <circle cx="30" cy="110" r="4" fill="#F7B6C7"/>  <circle cx="80" cy="150" r="5" fill="#E7548C"/>  <circle cx="120" cy="120" r="3.5" fill="#F28BAE"/>  <circle cx="170" cy="160" r="4.5" fill="#F7B6C7"/>  <circle cx="40" cy="180" r="3.5" fill="#E7548C"/>  <circle cx="150" cy="190" r="4" fill="#F28BAE"/>  <circle cx="110" cy="90" r="4.5" fill="#F7B6C7"/>  <circle cx="190" cy="110" r="3.5" fill="#E7548C"/>  <circle cx="10" cy="70" r="3.5" fill="#F28BAE"/></g>
  <g transform="translate(0 0)">  <circle cx="20" cy="30" r="5" fill="#E7548C"/>  <circle cx="60" cy="70" r="3.5" fill="#F28BAE"/>  <circle cx="100" cy="20" r="4" fill="#F7B6C7"/>  <circle cx="140" cy="60" r="5" fill="#E7548C"/>  <circle cx="180" cy="30" r="3.5" fill="#F28BAE"/>  <circle cx="30" cy="110" r="4" fill="#F7B6C7"/>  <circle cx="80" cy="150" r="5" fill="#E7548C"/>  <circle cx="120" cy="120" r="3.5" fill="#F28BAE"/>  <circle cx="170" cy="160" r="4.5" fill="#F7B6C7"/>  <circle cx="40" cy="180" r="3.5" fill="#E7548C"/>  <circle cx="150" cy="190" r="4" fill="#F28BAE"/>  <circle cx="110" cy="90" r="4.5" fill="#F7B6C7"/>  <circle cx="190" cy="110" r="3.5" fill="#E7548C"/>  <circle cx="10" cy="70" r="3.5" fill="#F28BAE"/></g>
  <g transform="translate(0 200)">  <circle cx="20" cy="30" r="5" fill="#E7548C"/>  <circle cx="60" cy="70" r="3.5" fill="#F28BAE"/>  <circle cx="100" cy="20" r="4" fill="#F7B6C7"/>  <circle cx="140" cy="60" r="5" fill="#E7548C"/>  <circle cx="180" cy="30" r="3.5" fill="#F28BAE"/>  <circle cx="30" cy="110" r="4" fill="#F7B6C7"/>  <circle cx="80" cy="150" r="5" fill="#E7548C"/>  <circle cx="120" cy="120" r="3.5" fill="#F28BAE"/>  <circle cx="170" cy="160" r="4.5" fill="#F7B6C7"/>  <circle cx="40" cy="180" r="3.5" fill="#E7548C"/>  <circle cx="150" cy="190" r="4" fill="#F28BAE"/>  <circle cx="110" cy="90" r="4.5" fill="#F7B6C7"/>  <circle cx="190" cy="110" r="3.5" fill="#E7548C"/>  <circle cx="10" cy="70" r="3.5" fill="#F28BAE"/></g>
  <g transform="translate(200 -200)">  <circle cx="20" cy="30" r="5" fill="#E7548C"/>  <circle cx="60" cy="70" r="3.5" fill="#F28BAE"/>  <circle cx="100" cy="20" r="4" fill="#F7B6C7"/>  <circle cx="140" cy="60" r="5" fill="#E7548C"/>  <circle cx="180" cy="30" r="3.5" fill="#F28BAE"/>  <circle cx="30" cy="110" r="4" fill="#F7B6C7"/>  <circle cx="80" cy="150" r="5" fill="#E7548C"/>  <circle cx="120" cy="120" r="3.5" fill="#F28BAE"/>  <circle cx="170" cy="160" r="4.5" fill="#F7B6C7"/>  <circle cx="40" cy="180" r="3.5" fill="#E7548C"/>  <circle cx="150" cy="190" r="4" fill="#F28BAE"/>  <circle cx="110" cy="90" r="4.5" fill="#F7B6C7"/>  <circle cx="190" cy="110" r="3.5" fill="#E7548C"/>  <circle cx="10" cy="70" r="3.5" fill="#F28BAE"/></g>
  <g transform="translate(200 0)">  <circle cx="20" cy="30" r="5" fill="#E7548C"/>  <circle cx="60" cy="70" r="3.5" fill="#F28BAE"/>  <circle cx="100" cy="20" r="4" fill="#F7B6C7"/>  <circle cx="140" cy="60" r="5" fill="#E7548C"/>  <circle cx="180" cy="30" r="3.5" fill="#F28BAE"/>  <circle cx="30" cy="110" r="4" fill="#F7B6C7"/>  <circle cx="80" cy="150" r="5" fill="#E7548C"/>  <circle cx="120" cy="120" r="3.5" fill="#F28BAE"/>  <circle cx="170" cy="160" r="4.5" fill="#F7B6C7"/>  <circle cx="40" cy="180" r="3.5" fill="#E7548C"/>  <circle cx="150" cy="190" r="4" fill="#F28BAE"/>  <circle cx="110" cy="90" r="4.5" fill="#F7B6C7"/>  <circle cx="190" cy="110" r="3.5" fill="#E7548C"/>  <circle cx="10" cy="70" r="3.5" fill="#F28BAE"/></g>
  <g transform="translate(200 200)">  <circle cx="20" cy="30" r="5" fill="#E7548C"/>  <circle cx="60" cy="70" r="3.5" fill="#F28BAE"/>  <circle cx="100" cy="20" r="4" fill="#F7B6C7"/>  <circle cx="140" cy="60" r="5" fill="#E7548C"/>  <circle cx="180" cy="30" r="3.5" fill="#F28BAE"/>  <circle cx="30" cy="110" r="4" fill="#F7B6C7"/>  <circle cx="80" cy="150" r="5" fill="#E7548C"/>  <circle cx="120" cy="120" r="3.5" fill="#F28BAE"/>  <circle cx="170" cy="160" r="4.5" fill="#F7B6C7"/>  <circle cx="40" cy="180" r="3.5" fill="#E7548C"/>  <circle cx="150" cy="190" r="4" fill="#F28BAE"/>  <circle cx="110" cy="90" r="4.5" fill="#F7B6C7"/>  <circle cx="190" cy="110" r="3.5" fill="#E7548C"/>  <circle cx="10" cy="70" r="3.5" fill="#F28BAE"/></g>
</svg>
